<svg xmlns="http://www.w3.org/2000/svg" width="285" height="56"><g fill="none" fill-rule="evenodd"><path d="M0 0h284v56H0z"/><g fill="#000" fill-rule="nonzero"><path d="M32.823 23.935c5.733 0 11.366-2.186 16.846-6.437L45.372 12c-4.32 3.351-8.483 4.966-12.55 4.966-4.065 0-8.229-1.615-12.548-4.966l-4.297 5.498c5.48 4.251 11.113 6.437 16.846 6.437ZM13.643 46c4.663 0 9.23-1.76 13.642-5.163l-4.28-5.51c-3.255 2.509-6.357 3.705-9.362 3.705-3.006 0-6.108-1.196-9.363-3.706L0 40.836C4.413 44.24 8.98 46 13.643 46Z"/><path d="M37.616 32.17c5.848 0 11.656 1.645 17.384 4.89l-3.457 6.057c-4.71-2.668-9.338-3.979-13.927-3.979-4.59 0-9.218 1.311-13.928 3.98L20.23 37.06c5.728-3.245 11.536-4.89 17.385-4.89Z"/><path d="m19.519 37.611 4.952 4.977 25.228-25.1-4.952-4.977z"/></g><path fill="#040404" fill-rule="nonzero" d="M79.545 41c2.216 0 4.114-.437 5.694-1.311 1.58-.875 2.79-2.129 3.63-3.763.841-1.635 1.262-3.588 1.262-5.86 0-2.265-.42-4.21-1.257-5.836-.839-1.625-2.037-2.873-3.595-3.743-1.558-.87-3.421-1.305-5.589-1.305h-7.542V41h7.397Zm-.187-3.418h-3.256V22.6h3.367c1.477 0 2.716.275 3.716.825 1 .55 1.754 1.379 2.262 2.484.509 1.106.763 2.492.763 4.156 0 1.674-.255 3.066-.765 4.179-.51 1.112-1.273 1.946-2.29 2.503-1.017.557-2.283.835-3.797.835Zm20.932 3.742c1.596 0 2.98-.352 4.154-1.057 1.172-.704 2.08-1.69 2.723-2.955.642-1.266.964-2.741.964-4.426 0-1.693-.322-3.174-.964-4.444-.643-1.27-1.55-2.257-2.723-2.962-1.173-.704-2.558-1.057-4.154-1.057-1.597 0-2.981.353-4.154 1.057-1.173.705-2.08 1.692-2.723 2.962-.643 1.27-.964 2.751-.964 4.444 0 1.685.321 3.16.964 4.426.643 1.265 1.55 2.25 2.723 2.955 1.173.705 2.557 1.057 4.154 1.057Zm.017-3.094c-.884 0-1.618-.24-2.203-.718-.585-.479-1.022-1.123-1.31-1.932-.289-.81-.433-1.714-.433-2.71 0-1 .144-1.907.432-2.72.289-.812.726-1.46 1.31-1.943.586-.483 1.32-.724 2.204-.724.872 0 1.598.241 2.177.724.58.483 1.014 1.131 1.302 1.944.289.812.433 1.718.433 2.718 0 .997-.144 1.9-.433 2.71-.288.81-.722 1.454-1.302 1.933-.58.479-1.305.718-2.177.718Zm17.659 3.094c1.372 0 2.566-.252 3.58-.755 1.015-.504 1.818-1.2 2.408-2.09.59-.89.932-1.914 1.026-3.07h-3.69c-.111.585-.32 1.085-.625 1.498a3.021 3.021 0 0 1-1.137.946 3.489 3.489 0 0 1-1.528.326c-.801 0-1.499-.215-2.093-.644-.595-.429-1.055-1.043-1.381-1.843-.326-.8-.489-1.757-.489-2.874 0-1.1.165-2.043.495-2.833.33-.789.793-1.394 1.387-1.817.595-.423 1.288-.634 2.081-.634.926 0 1.67.264 2.23.792.56.527.913 1.187 1.06 1.978h3.69c-.088-1.182-.438-2.214-1.05-3.096-.612-.882-1.43-1.567-2.455-2.054-1.024-.487-2.202-.73-3.535-.73-1.596 0-2.979.357-4.147 1.072-1.168.715-2.072 1.709-2.71 2.98-.639 1.273-.958 2.743-.958 4.41 0 1.65.314 3.111.942 4.381.628 1.27 1.527 2.264 2.697 2.98 1.17.718 2.571 1.077 4.202 1.077Zm15.077-.11c1.23 0 2.265-.292 3.106-.873a4.955 4.955 0 0 0 1.82-2.247h.17V41h3.742V24.636h-3.861v9.486c.003.83-.168 1.52-.512 2.071a3.364 3.364 0 0 1-1.317 1.24 3.565 3.565 0 0 1-1.657.414c-.922 0-1.666-.306-2.232-.917-.566-.61-.85-1.436-.853-2.476v-9.818h-3.86v10.415c.002 1.313.234 2.427.696 3.344.462.917 1.102 1.616 1.922 2.097.82.48 1.765.721 2.836.721Zm16.09-.214v-9.955c0-.671.136-1.26.407-1.767.27-.506.633-.9 1.088-1.183.456-.283.96-.424 1.514-.424.816 0 1.477.253 1.984.76.507.506.76 1.181.76 2.026V41h3.785V30.79c0-.922.26-1.672.78-2.251s1.245-.868 2.177-.868c.781 0 1.442.237 1.984.711.54.475.811 1.217.811 2.229V41h3.861V30.014c0-1.825-.474-3.213-1.423-4.164-.949-.951-2.176-1.427-3.682-1.427-1.189 0-2.215.272-3.079.815-.863.544-1.476 1.27-1.838 2.177h-.17c-.312-.925-.85-1.655-1.615-2.19-.765-.534-1.701-.802-2.81-.802-1.093 0-2.033.266-2.818.796-.786.53-1.349 1.263-1.69 2.196h-.196v-2.779h-3.69V41h3.86Zm29.762.324c1.27 0 2.398-.195 3.384-.585.985-.39 1.797-.938 2.435-1.645a5.586 5.586 0 0 0 1.298-2.483l-3.606-.41a3.064 3.064 0 0 1-.756 1.167c-.33.315-.725.551-1.181.71a4.622 4.622 0 0 1-1.523.237c-.842 0-1.576-.18-2.2-.54a3.677 3.677 0 0 1-1.457-1.557c-.346-.679-.519-1.494-.519-2.445l.002.103 11.393-.001V32.69c0-1.436-.198-2.674-.595-3.716-.396-1.04-.94-1.898-1.634-2.57a6.613 6.613 0 0 0-2.388-1.495 8.367 8.367 0 0 0-2.857-.486c-1.563 0-2.924.357-4.084 1.071-1.16.714-2.06 1.708-2.702 2.983-.641 1.275-.962 2.753-.962 4.435 0 1.71.32 3.196.96 4.456.64 1.26 1.554 2.235 2.742 2.924 1.189.688 2.605 1.032 4.25 1.032Zm-4.115-10.09c.04-.627.205-1.21.493-1.748a3.935 3.935 0 0 1 1.388-1.488c.596-.378 1.29-.566 2.08-.566.742 0 1.392.166 1.95.498.557.333.991.788 1.303 1.366.312.578.47 1.238.472 1.98h-7.688l.002-.042ZM192.719 41v-9.588c.003-.787.151-1.458.445-2.013.294-.556.702-.98 1.222-1.272.52-.293 1.118-.44 1.793-.44.994 0 1.775.31 2.342.926.567.618.849 1.474.846 2.569V41h3.86V30.585c.003-1.31-.228-2.423-.694-3.34-.466-.917-1.12-1.616-1.96-2.098-.841-.483-1.826-.724-2.953-.724-1.222 0-2.247.27-3.075.811a4.637 4.637 0 0 0-1.8 2.18h-.197v-2.778h-3.69V41h3.86Zm19.753.225.318-.003a7.222 7.222 0 0 0 1.39-.15c.377-.087.67-.164.877-.234l-.648-3.009c-.109.025-.265.055-.466.091a3.73 3.73 0 0 1-.659.054c-.324 0-.617-.05-.88-.15a1.223 1.223 0 0 1-.631-.558c-.157-.272-.236-.667-.236-1.184V27.62h3.222v-2.984l-3.222.001v-3.921h-3.86l-.001 3.921h-2.318v2.982l2.318.001v9.093c-.005.926.175 1.71.54 2.352l.128.21a4.012 4.012 0 0 0 1.837 1.503c.773.324 1.643.472 2.609.444l-.318.003Zm9.667.107c.856 0 1.6-.119 2.233-.358.634-.238 1.163-.554 1.588-.948.424-.393.753-.819.986-1.276h.128V41h3.708V30.048c0-1.083-.197-1.988-.59-2.712a4.704 4.704 0 0 0-1.561-1.724 6.642 6.642 0 0 0-2.146-.913 10.255 10.255 0 0 0-2.351-.276c-1.145 0-2.19.169-3.133.506-.944.338-1.743.842-2.397 1.513-.655.671-1.124 1.504-1.408 2.498l3.597.512c.195-.56.567-1.046 1.116-1.46.55-.413 1.297-.62 2.242-.62.899 0 1.585.22 2.06.66.473.441.71 1.062.71 1.863v.068c0 .368-.136.639-.408.812-.272.173-.706.3-1.302.382-.596.082-1.376.175-2.339.28-.794.086-1.561.221-2.302.406-.74.186-1.406.46-1.995.822a3.984 3.984 0 0 0-1.4 1.452c-.344.606-.516 1.369-.516 2.29 0 1.073.24 1.975.72 2.706a4.522 4.522 0 0 0 1.96 1.658c.827.374 1.76.561 2.8.561Zm.998-2.838c-.8 0-1.459-.181-1.977-.544-.517-.363-.776-.897-.776-1.603 0-.498.13-.904.393-1.22.262-.316.62-.563 1.074-.74a6.827 6.827 0 0 1 1.541-.384l.907-.127c.349-.049.702-.106 1.059-.17.357-.065.678-.14.963-.224.285-.085.49-.178.617-.28v1.926c0 .608-.156 1.167-.466 1.677a3.4 3.4 0 0 1-1.319 1.227c-.569.308-1.24.462-2.016.462Zm16.855 2.73.318-.002a7.222 7.222 0 0 0 1.39-.15c.377-.087.67-.164.877-.234l-.648-3.009c-.109.025-.265.055-.466.091a3.73 3.73 0 0 1-.659.054c-.324 0-.617-.05-.88-.15a1.223 1.223 0 0 1-.631-.558c-.157-.272-.236-.667-.236-1.184V27.62h3.222v-2.984l-3.222.001v-3.921h-3.86l-.001 3.921h-2.318v2.982l2.318.001v9.093c-.005.926.175 1.71.54 2.352l.128.21a4.012 4.012 0 0 0 1.837 1.503c.773.324 1.643.472 2.609.444l-.318.003Zm6.9-18.906a2.22 2.22 0 0 0 1.575-.616c.437-.41.656-.904.656-1.48 0-.577-.219-1.07-.656-1.481a2.222 2.222 0 0 0-1.577-.616c-.612 0-1.137.205-1.575.616-.44.41-.658.904-.658 1.48 0 .577.219 1.07.657 1.481.438.41.964.616 1.578.616ZM248.807 41V24.636h-3.86V41h3.86Zm10.534.324c1.597 0 2.981-.352 4.154-1.057 1.173-.704 2.08-1.69 2.723-2.955.643-1.266.964-2.741.964-4.426 0-1.693-.321-3.174-.964-4.444s-1.55-2.257-2.723-2.962c-1.173-.704-2.557-1.057-4.154-1.057-1.596 0-2.98.353-4.153 1.057-1.173.705-2.08 1.692-2.724 2.962-.642 1.27-.964 2.751-.964 4.444 0 1.685.322 3.16.964 4.426.643 1.265 1.55 2.25 2.724 2.955 1.172.705 2.557 1.057 4.153 1.057Zm.017-3.094c-.883 0-1.618-.24-2.203-.718-.585-.479-1.022-1.123-1.31-1.932-.288-.81-.433-1.714-.433-2.71 0-1 .145-1.907.433-2.72.288-.812.725-1.46 1.31-1.943.585-.483 1.32-.724 2.203-.724.872 0 1.598.241 2.178.724.58.483 1.013 1.131 1.302 1.944.288.812.432 1.718.432 2.718 0 .997-.144 1.9-.432 2.71-.289.81-.723 1.454-1.302 1.933-.58.479-1.306.718-2.178.718ZM273.736 41v-9.588c.003-.787.152-1.458.446-2.013.294-.556.7-.98 1.221-1.272.521-.293 1.119-.44 1.793-.44.995 0 1.775.31 2.342.926.567.618.849 1.474.846 2.569V41h3.86V30.585c.004-1.31-.228-2.423-.694-3.34-.466-.917-1.12-1.616-1.96-2.098-.84-.483-1.825-.724-2.953-.724-1.222 0-2.247.27-3.075.811a4.637 4.637 0 0 0-1.8 2.18h-.196v-2.778h-3.69V41h3.86Z"/></g></svg>