<svg xmlns="http://www.w3.org/2000/svg" width="66" height="72"><g fill="none" fill-rule="evenodd"><rect width="66" height="72" fill="#000" rx="5"/><g fill="#FFF" fill-rule="nonzero"><path d="M38.316 22.424c5.767 0 11.435-2.207 16.948-6.5l-4.323-5.551c-4.346 3.383-8.535 5.014-12.625 5.014-4.091 0-8.28-1.63-12.626-5.014l-4.323 5.551c5.513 4.293 11.181 6.5 16.949 6.5ZM19.019 44.704c4.691 0 9.285-1.777 13.725-5.213l-4.306-5.565c-3.275 2.535-6.396 3.742-9.42 3.742-3.023 0-6.144-1.207-9.418-3.742l-4.307 5.565c4.44 3.436 9.034 5.213 13.726 5.213Z"/><path d="M43.137 30.74c5.885 0 11.728 1.66 17.49 4.937l-3.477 6.116c-4.739-2.694-9.395-4.017-14.013-4.017-4.617 0-9.273 1.323-14.012 4.017l-3.478-6.116c5.763-3.277 11.606-4.938 17.49-4.938Z"/><path d="m24.921 36.187 5.001 5.026L55.304 15.96l-5.001-5.026zM19.112 63v-1.116h-3l3-4.38v-1.116h-4.584v1.116h3.012l-3.012 4.38V63h4.584Zm4.104.096c.392 0 .762-.078 1.11-.234.348-.156.63-.37.846-.642V63h1.368v-6.612h-1.368v3.684c0 .592-.15 1.046-.45 1.362-.3.316-.706.474-1.218.474s-.916-.158-1.212-.474c-.296-.316-.444-.77-.444-1.362v-3.684h-1.356v3.888c0 .6.118 1.112.354 1.536.236.424.56.744.972.96.412.216.878.324 1.398.324Zm8.232 3.168c.672 0 1.25-.136 1.734-.408a2.775 2.775 0 0 0 1.11-1.122c.256-.476.384-1.018.384-1.626v-6.72h-1.38v.96a2.616 2.616 0 0 0-.93-.762c-.396-.204-.85-.306-1.362-.306-.576 0-1.102.142-1.578.426a3.035 3.035 0 0 0-1.128 1.194c-.276.512-.414 1.1-.414 1.764 0 .664.138 1.258.414 1.782.276.524.652.932 1.128 1.224a2.96 2.96 0 0 0 1.578.438c.504 0 .954-.106 1.35-.318a2.79 2.79 0 0 0 .942-.786v1.104c0 .64-.17 1.128-.51 1.464-.34.336-.786.504-1.338.504-.472 0-.878-.106-1.218-.318-.34-.212-.562-.49-.666-.834h-1.356c.08.72.416 1.29 1.008 1.71.592.42 1.336.63 2.232.63Zm-.156-4.344c-.344 0-.67-.09-.978-.27a1.99 1.99 0 0 1-.744-.786c-.188-.344-.282-.744-.282-1.2 0-.456.094-.85.282-1.182a1.946 1.946 0 0 1 1.722-1.014c.352 0 .68.088.984.264.304.176.55.432.738.768.188.336.282.732.282 1.188 0 .456-.094.854-.282 1.194a1.97 1.97 0 0 1-.738.774 1.93 1.93 0 0 1-.984.264ZM37.844 63v-3.48c0-.672.138-1.144.414-1.416.276-.272.682-.408 1.218-.408h.348V56.28c-.456 0-.85.094-1.182.282-.332.188-.598.45-.798.786v-.96h-1.368V63h1.368Zm3.936-7.488c.24 0 .444-.084.612-.252a.847.847 0 0 0 .252-.624.847.847 0 0 0-.252-.624.833.833 0 0 0-.612-.252.847.847 0 0 0-.624.252.847.847 0 0 0-.252.624c0 .248.084.456.252.624a.847.847 0 0 0 .624.252ZM42.452 63v-6.612h-1.368V63h1.368Zm3.348 0v-5.496h1.224v-1.116H45.8v-.468c0-.384.084-.654.252-.81.168-.156.46-.234.876-.234v-1.14c-.864 0-1.498.174-1.902.522-.404.348-.606.902-.606 1.662v.468h-.78v1.116h.78V63h1.38Zm3.984 0v-5.496h1.224v-1.116h-1.224v-.468c0-.384.084-.654.252-.81.168-.156.46-.234.876-.234v-1.14c-.864 0-1.498.174-1.902.522-.404.348-.606.902-.606 1.662v.468h-.78v1.116h.78V63h1.38Z"/></g></g></svg>