<svg xmlns="http://www.w3.org/2000/svg" width="66" height="34" aria-hidden="true"><path fill="white" d="m45.372 0 4.15 5.311.177.177-14.883 14.808a31 31 0 0 1 2.8-.126c5.848 0 11.656 1.645 17.384 4.89l-3.457 6.057c-4.71-2.668-9.338-3.979-13.927-3.979-4.082 0-8.194 1.037-12.367 3.143C21.473 32.737 17.592 34 13.643 34 8.979 34 4.413 32.24 0 28.837l4.28-5.51c3.255 2.509 6.357 3.705 9.363 3.705 1.958 0 3.958-.508 6.015-1.557L33.269 11.93l-.446.006c-5.569 0-11.044-2.063-16.376-6.078l-.47-.359L20.274 0c4.32 3.351 8.483 4.966 12.549 4.966S41.053 3.351 45.373 0Z"></path></svg>